<?xml version="1.0" encoding="UTF-8"?>
<svg width="400" height="400" viewBox="0 0 400 400" fill="none" xmlns="http://www.w3.org/2000/svg">
  <!-- Motif géométrique inspiré des tissus africains -->
  <defs>
    <pattern id="pattern-kente" x="0" y="0" width="40" height="40" patternUnits="userSpaceOnUse">
      <!-- Lignes horizontales -->
      <rect x="0" y="0" width="40" height="5" fill="#f39c12" opacity="0.7"/>
      <rect x="0" y="10" width="40" height="3" fill="#27ae60" opacity="0.5"/>
      <rect x="0" y="20" width="40" height="4" fill="#e74c3c" opacity="0.6"/>
      <rect x="0" y="30" width="40" height="2" fill="#f39c12" opacity="0.4"/>
      
      <!-- Lignes verticales -->
      <rect x="0" y="0" width="3" height="40" fill="#27ae60" opacity="0.5"/>
      <rect x="10" y="0" width="2" height="40" fill="#f39c12" opacity="0.6"/>
      <rect x="20" y="0" width="4" height="40" fill="#e74c3c" opacity="0.4"/>
      <rect x="30" y="0" width="1" height="40" fill="#27ae60" opacity="0.7"/>
      
      <!-- Petits carrés aux intersections -->
      <rect x="0" y="0" width="5" height="5" fill="#f39c12" opacity="0.9"/>
      <rect x="10" y="10" width="5" height="5" fill="#27ae60" opacity="0.9"/>
      <rect x="20" y="20" width="5" height="5" fill="#e74c3c" opacity="0.9"/>
      <rect x="30" y="30" width="5" height="5" fill="#f39c12" opacity="0.9"/>
    </pattern>
  </defs>
  
  <!-- Formes géométriques inspirées des motifs Adinkra du Ghana -->
  <rect x="0" y="0" width="400" height="400" fill="url(#pattern-kente)" />
  
  <!-- Cercles concentriques (symbole d'unité) -->
  <circle cx="200" cy="200" r="70" stroke="#f39c12" stroke-width="5" fill="none" opacity="0.7"/>
  <circle cx="200" cy="200" r="100" stroke="#27ae60" stroke-width="3" fill="none" opacity="0.5"/>
  <circle cx="200" cy="200" r="130" stroke="#e74c3c" stroke-width="4" fill="none" opacity="0.6"/>
  
  <!-- Motifs triangulaires (symboles de sagesse) -->
  <polygon points="200,100 150,175 250,175" fill="#f39c12" opacity="0.6"/>
  <polygon points="200,300 150,225 250,225" fill="#27ae60" opacity="0.6"/>
  
  <!-- Lignes de connexion (symbole de communauté) -->
  <line x1="100" y1="100" x2="300" y2="300" stroke="#e74c3c" stroke-width="3" opacity="0.5"/>
  <line x1="300" y1="100" x2="100" y2="300" stroke="#f39c12" stroke-width="3" opacity="0.5"/>
</svg>
